<mxfile host="app.diagrams.net" agent="Mozilla/5.0 (Windows NT 10.0; Win64; x64) AppleWebKit/537.36 (KHTML, like Gecko) Chrome/130.0.0.0 Safari/537.36" version="24.8.3">
  <diagram name="Page-1" id="DYlrvpux4-JASZ0brNI_">
    <mxGraphModel dx="904" dy="483" grid="0" gridSize="10" guides="1" tooltips="1" connect="1" arrows="1" fold="1" page="1" pageScale="1" pageWidth="850" pageHeight="1100" math="0" shadow="0">
      <root>
        <mxCell id="0" />
        <mxCell id="1" parent="0" />
        <mxCell id="xyPofnfpF94zoi8fh-3h-2" value="Home Screen" style="ellipse;whiteSpace=wrap;html=1;aspect=fixed;" parent="1" vertex="1">
          <mxGeometry x="240" y="180" width="80" height="80" as="geometry" />
        </mxCell>
        <mxCell id="xyPofnfpF94zoi8fh-3h-8" value="On Call with Nurse" style="ellipse;whiteSpace=wrap;html=1;aspect=fixed;" parent="1" vertex="1">
          <mxGeometry x="458" y="398" width="80" height="80" as="geometry" />
        </mxCell>
        <mxCell id="xyPofnfpF94zoi8fh-3h-9" value="" style="html=1;verticalAlign=bottom;endArrow=block;curved=0;rounded=0;entryX=1;entryY=0;entryDx=0;entryDy=0;exitX=0.5;exitY=1;exitDx=0;exitDy=0;" parent="1" source="xyPofnfpF94zoi8fh-3h-15" target="xyPofnfpF94zoi8fh-3h-8" edge="1">
          <mxGeometry x="0.0089" y="17" width="80" relative="1" as="geometry">
            <mxPoint x="619" y="185" as="sourcePoint" />
            <mxPoint x="400" y="140" as="targetPoint" />
            <Array as="points" />
            <mxPoint as="offset" />
          </mxGeometry>
        </mxCell>
        <mxCell id="COaktu2SZjMxs_DpZQC7-2" value="Patient Calls&lt;div&gt;Nurse Hotline&lt;/div&gt;" style="edgeLabel;html=1;align=center;verticalAlign=middle;resizable=0;points=[];" vertex="1" connectable="0" parent="xyPofnfpF94zoi8fh-3h-9">
          <mxGeometry x="0.0584" relative="1" as="geometry">
            <mxPoint as="offset" />
          </mxGeometry>
        </mxCell>
        <mxCell id="xyPofnfpF94zoi8fh-3h-11" value="" style="html=1;verticalAlign=bottom;endArrow=block;rounded=0;entryX=0;entryY=0.5;entryDx=0;entryDy=0;exitX=1;exitY=0.5;exitDx=0;exitDy=0;" parent="1" source="xyPofnfpF94zoi8fh-3h-12" target="xyPofnfpF94zoi8fh-3h-15" edge="1">
          <mxGeometry width="80" relative="1" as="geometry">
            <mxPoint x="617" y="263" as="sourcePoint" />
            <mxPoint x="670" y="340" as="targetPoint" />
          </mxGeometry>
        </mxCell>
        <mxCell id="COaktu2SZjMxs_DpZQC7-1" value="Register For&lt;div&gt;Virtual Triage&lt;/div&gt;" style="edgeLabel;html=1;align=center;verticalAlign=middle;resizable=0;points=[];" vertex="1" connectable="0" parent="xyPofnfpF94zoi8fh-3h-11">
          <mxGeometry x="-0.3165" relative="1" as="geometry">
            <mxPoint x="11" as="offset" />
          </mxGeometry>
        </mxCell>
        <mxCell id="xyPofnfpF94zoi8fh-3h-12" value="Triage Pending" style="ellipse;whiteSpace=wrap;html=1;aspect=fixed;" parent="1" vertex="1">
          <mxGeometry x="444" y="180" width="80" height="80" as="geometry" />
        </mxCell>
        <mxCell id="xyPofnfpF94zoi8fh-3h-14" value="" style="html=1;verticalAlign=bottom;endArrow=block;rounded=0;exitX=1;exitY=0.5;exitDx=0;exitDy=0;entryX=0;entryY=0.5;entryDx=0;entryDy=0;" parent="1" source="xyPofnfpF94zoi8fh-3h-2" target="xyPofnfpF94zoi8fh-3h-12" edge="1">
          <mxGeometry x="0.0001" width="80" relative="1" as="geometry">
            <mxPoint x="459.9973319220215" y="217.35088935932606" as="sourcePoint" />
            <mxPoint x="564.1026680779785" y="217.35088935932617" as="targetPoint" />
            <mxPoint as="offset" />
          </mxGeometry>
        </mxCell>
        <mxCell id="cL02ZZwTRT4vL0tsfASS-1" value="Enter Severity 1-10" style="edgeLabel;html=1;align=center;verticalAlign=middle;resizable=0;points=[];" parent="xyPofnfpF94zoi8fh-3h-14" vertex="1" connectable="0">
          <mxGeometry x="0.1164" y="-1" relative="1" as="geometry">
            <mxPoint x="-14" y="-1" as="offset" />
          </mxGeometry>
        </mxCell>
        <mxCell id="COaktu2SZjMxs_DpZQC7-6" style="rounded=0;orthogonalLoop=1;jettySize=auto;html=1;entryX=0.5;entryY=0;entryDx=0;entryDy=0;exitX=1;exitY=1;exitDx=0;exitDy=0;" edge="1" parent="1" source="xyPofnfpF94zoi8fh-3h-15" target="COaktu2SZjMxs_DpZQC7-5">
          <mxGeometry relative="1" as="geometry" />
        </mxCell>
        <mxCell id="COaktu2SZjMxs_DpZQC7-7" value="Patient views&amp;nbsp;&lt;div&gt;waitlist&lt;/div&gt;" style="edgeLabel;html=1;align=center;verticalAlign=middle;resizable=0;points=[];" vertex="1" connectable="0" parent="COaktu2SZjMxs_DpZQC7-6">
          <mxGeometry x="-0.224" y="3" relative="1" as="geometry">
            <mxPoint as="offset" />
          </mxGeometry>
        </mxCell>
        <mxCell id="xyPofnfpF94zoi8fh-3h-15" value="Registered for Triage" style="ellipse;whiteSpace=wrap;html=1;aspect=fixed;" parent="1" vertex="1">
          <mxGeometry x="623" y="180" width="80" height="80" as="geometry" />
        </mxCell>
        <mxCell id="tWSdLaK9gwGoN7QiNVpl-1" value="Patient sees general practionner" style="ellipse;whiteSpace=wrap;html=1;aspect=fixed;" parent="1" vertex="1">
          <mxGeometry x="320" y="285" width="80" height="80" as="geometry" />
        </mxCell>
        <mxCell id="tWSdLaK9gwGoN7QiNVpl-3" value="" style="html=1;verticalAlign=bottom;endArrow=block;rounded=0;exitX=0;exitY=1;exitDx=0;exitDy=0;entryX=1;entryY=0.5;entryDx=0;entryDy=0;" parent="1" source="xyPofnfpF94zoi8fh-3h-15" target="tWSdLaK9gwGoN7QiNVpl-1" edge="1">
          <mxGeometry x="0.3239" y="11" width="80" relative="1" as="geometry">
            <mxPoint x="435" y="377" as="sourcePoint" />
            <mxPoint x="531" y="473" as="targetPoint" />
            <mxPoint as="offset" />
          </mxGeometry>
        </mxCell>
        <mxCell id="cL02ZZwTRT4vL0tsfASS-4" value="&lt;span style=&quot;font-size: 12px; text-wrap-mode: wrap; background-color: rgb(251, 251, 251);&quot;&gt;Patient&amp;nbsp;&lt;/span&gt;&lt;span style=&quot;background-color: rgb(251, 251, 251); font-size: 12px; text-wrap-mode: wrap;&quot;&gt;referred to General Practioner&lt;/span&gt;" style="edgeLabel;html=1;align=center;verticalAlign=middle;resizable=0;points=[];" parent="tWSdLaK9gwGoN7QiNVpl-3" vertex="1" connectable="0">
          <mxGeometry x="0.1406" y="-1" relative="1" as="geometry">
            <mxPoint x="-21" y="4" as="offset" />
          </mxGeometry>
        </mxCell>
        <mxCell id="tWSdLaK9gwGoN7QiNVpl-4" value="Patient goes to Emergency Department" style="ellipse;whiteSpace=wrap;html=1;aspect=fixed;" parent="1" vertex="1">
          <mxGeometry x="350" y="383" width="80" height="80" as="geometry" />
        </mxCell>
        <mxCell id="tWSdLaK9gwGoN7QiNVpl-6" value="" style="html=1;verticalAlign=bottom;endArrow=block;curved=0;rounded=0;entryX=1;entryY=0;entryDx=0;entryDy=0;exitX=0.289;exitY=0.954;exitDx=0;exitDy=0;exitPerimeter=0;" parent="1" source="xyPofnfpF94zoi8fh-3h-15" target="tWSdLaK9gwGoN7QiNVpl-4" edge="1">
          <mxGeometry x="0.4688" y="23" width="80" relative="1" as="geometry">
            <mxPoint x="648" y="255" as="sourcePoint" />
            <mxPoint x="348" y="612" as="targetPoint" />
            <Array as="points" />
            <mxPoint x="-1" as="offset" />
          </mxGeometry>
        </mxCell>
        <mxCell id="COaktu2SZjMxs_DpZQC7-4" value="&lt;span style=&quot;font-size: 12px; text-wrap-mode: wrap; background-color: rgb(251, 251, 251);&quot;&gt;Patient added to waitlist&lt;/span&gt;" style="edgeLabel;html=1;align=center;verticalAlign=middle;resizable=0;points=[];" vertex="1" connectable="0" parent="tWSdLaK9gwGoN7QiNVpl-6">
          <mxGeometry x="0.2957" y="-4" relative="1" as="geometry">
            <mxPoint x="-31" y="21" as="offset" />
          </mxGeometry>
        </mxCell>
        <mxCell id="COaktu2SZjMxs_DpZQC7-5" value="Viewing Waitlist" style="ellipse;whiteSpace=wrap;html=1;aspect=fixed;" vertex="1" parent="1">
          <mxGeometry x="597" y="407" width="80" height="80" as="geometry" />
        </mxCell>
      </root>
    </mxGraphModel>
  </diagram>
</mxfile>
